<svg width="100" height="100" viewBox="0 0 100 100" fill="none" xmlns="http://www.w3.org/2000/svg">
<g clip-path="url(#clip0)">
<path fill-rule="evenodd" clip-rule="evenodd" d="M20.37 63.6391C21.1914 62.9265 21.9368 62.2795 22.7803 61.7603C25.2022 60.2687 27.8462 59.8091 30.6519 60.0513C31.9715 60.1652 33.2363 60.4599 34.4482 60.9943C36.1747 61.7557 37.4664 63.0109 38.5177 64.5366C38.6928 64.7903 38.7822 64.8406 38.9784 64.5486C40.7742 61.8746 43.3432 60.4108 46.4989 60.0252C49.6249 59.6431 52.5335 60.2519 54.9447 62.4233C56.1605 63.5178 56.8405 64.9272 57.1281 66.5307C57.3195 67.6006 57.3926 68.6816 57.3945 69.7634C57.407 75.2544 57.3945 80.7454 57.4118 86.2364C57.4128 86.7048 57.281 86.8133 56.8242 86.8099C53.9233 86.7885 51.0215 86.79 48.1206 86.809C47.6993 86.8116 47.5839 86.7074 47.5858 86.2808C47.6022 81.9552 47.6012 77.6293 47.5916 73.3037C47.5897 72.2681 47.505 71.2363 47.2646 70.2229C46.4258 66.6775 42.3871 66.6569 40.5866 68.3338C39.4795 69.3651 39.1121 70.681 38.9476 72.1028C38.8091 73.3115 38.863 74.5244 38.8611 75.7358C38.8553 79.2633 38.8534 82.791 38.8659 86.3186C38.8669 86.6829 38.7851 86.8103 38.3917 86.8081C35.4428 86.7914 32.4938 86.7907 29.5439 86.8085C29.1312 86.811 29.0447 86.6808 29.0456 86.2944C29.0581 81.9208 29.0533 77.5472 29.0543 73.1735C29.0543 72.2802 29.0235 71.3896 28.8504 70.509C28.5291 68.87 27.5452 67.8469 25.9293 67.4467C24.024 66.9749 22.1417 67.6888 21.1414 69.2483C20.5402 70.1848 20.4104 71.2594 20.4027 72.3253C20.369 76.9539 20.368 81.5829 20.3825 86.2116C20.3844 86.7078 20.2478 86.8142 19.7708 86.8104C16.8699 86.7875 13.9681 86.7909 11.0672 86.8084C10.6613 86.8108 10.5642 86.6943 10.5651 86.3006C10.5757 77.8247 10.5767 69.3489 10.5641 60.873C10.5632 60.4578 10.6978 60.379 11.0816 60.381C14.0152 60.396 16.9478 60.3977 19.8814 60.3796C20.2959 60.3771 20.3902 60.5094 20.3786 60.8954C20.3517 61.7717 20.37 62.6495 20.37 63.6391ZM78.7721 70.0503C80.4697 70.0503 82.1673 70.0509 83.8649 70.0495C84.065 70.0493 84.3266 70.1057 84.2304 69.7503C83.8736 68.4262 83.283 67.2497 82.1202 66.4306C80.9583 65.6117 79.6406 65.4845 78.2729 65.5378C75.7731 65.6351 73.8841 67.2219 73.3493 69.6588C73.2723 70.0101 73.3666 70.0573 73.6782 70.0553C75.3759 70.0448 77.0744 70.0503 78.7721 70.0503ZM83.2292 75.3394C80.0071 75.3394 76.7859 75.339 73.5647 75.3397C73.0079 75.3399 72.9617 75.3958 73.0348 75.9485C73.1069 76.4843 73.1415 77.0247 73.2839 77.5508C73.735 79.2156 74.7372 80.3678 76.4127 80.8825C77.8651 81.3286 79.3309 81.4175 80.8073 80.9813C81.8768 80.665 82.7184 80.0264 83.3763 79.1471C83.5658 78.894 83.7563 78.7709 84.0871 78.7724C86.9082 78.7854 89.7292 78.7886 92.5493 78.7711C93.0138 78.7682 93.0388 78.9094 92.908 79.295C91.4201 83.6786 88.272 86.1964 83.8601 87.291C82.426 87.6468 80.966 87.7761 79.4867 87.8014C76.9244 87.845 74.4006 87.6186 71.9931 86.7086C67.2706 84.924 64.2793 81.6067 63.38 76.6113C62.6942 72.8027 63.1934 69.1434 65.3103 65.8148C66.9301 63.2689 69.2086 61.5043 72.0816 60.5844C75.9693 59.3397 79.9282 59.2487 83.8515 60.3553C88.7068 61.7246 91.5817 65.0662 92.9013 69.8275C93.3707 71.5181 93.437 73.2523 93.414 74.9954C93.4091 75.3776 93.187 75.3402 92.9417 75.3401C89.7042 75.339 86.4667 75.3394 83.2292 75.3394ZM88.0258 18.9479C88.5442 18.574 89.1454 18.3557 89.7234 18.0848C92.4637 16.803 96.891 17.3573 98.7694 19.6073C100.911 22.1729 99.7466 24.9298 99.0695 25.8503C98.8714 26.048 98.679 26.2394 98.4809 26.4372C96.2177 28.1048 82.3154 38.3366 80.211 39.6102C77.9199 40.9974 73.1146 40.9836 70.3926 38.2229C69.1875 36.9999 69.0374 35.8661 69.1894 34.4972C69.3558 32.9948 70.4157 31.8388 71.5863 30.8213L88.0258 18.9479ZM11.9742 18.5303L28.4137 30.4036C29.5843 31.4211 30.6442 32.5772 30.8106 34.0796C30.9626 35.4485 30.8125 36.5821 29.6074 37.8053C26.8854 40.566 22.0801 40.5797 19.789 39.1926C17.6846 37.9189 3.78231 27.6872 1.51913 26.0196C1.321 25.8218 1.12863 25.6304 0.930496 25.4325C0.25337 24.512 -0.911401 21.7553 1.23059 19.1897C3.10903 16.9396 7.53632 16.3854 10.2766 17.6672C10.8546 17.938 11.4558 18.1564 11.9742 18.5303ZM57.6475 18.2649L57.5686 28.9148C57.5628 29.3339 57.5205 29.7543 57.4061 30.1579C56.5702 33.1116 53.629 34.7027 50.1193 34.7027C46.4989 34.7027 43.4798 33.3136 42.7623 30.2489C42.6661 29.8407 42.6382 29.4199 42.6382 29.0007L42.6459 18.2649H42.6488C42.6824 14.2096 46.0392 12 50.1799 12C54.3407 12 57.6542 13.902 57.6542 17.9963C57.6542 18.0855 57.6504 18.1751 57.6475 18.2649ZM71.8231 42.7126C76.1603 44.8544 79.4085 47.6177 81.7768 50.6707L16.8506 50.6766C16.8581 50.6667 16.8655 50.6567 16.873 50.6468L16.791 50.6468C22.2869 43.2787 33.1046 38.2081 49.2363 38.2081C58.8691 38.2081 66.2489 39.946 71.8231 42.7126Z" fill="#02A95C"/>
</g>
<defs>
<clipPath id="clip0">
<rect width="100" height="100" fill="white"/>
</clipPath>
</defs>
</svg>
